<svg width="64" height="64" viewBox="0 0 64 64" fill="none" xmlns="http://www.w3.org/2000/svg">
<circle cx="32" cy="32" r="31" fill="#97F5F5" stroke="black" stroke-width="2"/>
<path d="M30.5 47H21.5227V17.9091H30.8977C33.7197 17.9091 36.1345 18.4915 38.142 19.6562C40.1496 20.8116 41.6884 22.4735 42.7585 24.642C43.8286 26.8011 44.3636 29.3864 44.3636 32.3977C44.3636 35.428 43.8239 38.0369 42.7443 40.2244C41.6648 42.4025 40.0928 44.0786 38.0284 45.2528C35.964 46.4176 33.4545 47 30.5 47ZM25.0455 43.875H30.2727C32.678 43.875 34.6714 43.411 36.2528 42.483C37.8343 41.5549 39.0133 40.2339 39.7898 38.5199C40.5663 36.8059 40.9545 34.7652 40.9545 32.3977C40.9545 30.0492 40.571 28.0275 39.804 26.3324C39.0369 24.6278 37.8911 23.321 36.3665 22.4119C34.8419 21.4934 32.9432 21.0341 30.6705 21.0341H25.0455V43.875Z" fill="black"/>
</svg>
